<?xml version="1.0" encoding="UTF-8"?>
<svg version="1.1" xmlns="http://www.w3.org/2000/svg" width="512" height="512">
<path d="M0 0 C1.01790619 0.00215515 2.03581238 0.0043103 3.08456421 0.00653076 C17.69363523 0.05620146 32.02575853 0.30709809 46.375 3.3125 C47.34985352 3.51117676 48.32470703 3.70985352 49.32910156 3.91455078 C97.7109774 14.03517194 141.69928269 35.9516877 177.375 70.3125 C178.3640332 71.26068604 178.3640332 71.26068604 179.37304688 72.22802734 C188.86130305 81.37247479 197.6012044 90.66984009 205.375 101.3125 C206.23306152 102.46355017 207.09113451 103.61459177 207.94921875 104.765625 C213.98736829 112.95680614 219.34595521 121.47054105 224.375 130.3125 C224.73948242 130.94430176 225.10396484 131.57610352 225.47949219 132.22705078 C247.08534998 169.97532572 256.85198095 212.74189997 256.6875 255.9375 C256.68534485 256.95540619 256.6831897 257.97331238 256.68096924 259.02206421 C256.63129854 273.63113523 256.38040191 287.96325853 253.375 302.3125 C253.07698486 303.77478027 253.07698486 303.77478027 252.77294922 305.26660156 C242.65232806 353.6484774 220.7358123 397.63678269 186.375 433.3125 C185.74287598 433.97185547 185.11075195 434.63121094 184.45947266 435.31054688 C175.31502521 444.79880305 166.01765991 453.5387044 155.375 461.3125 C154.22394983 462.17056152 153.07290823 463.02863451 151.921875 463.88671875 C143.73224019 469.92427396 135.22961724 475.30707302 126.375 480.3125 C125.66778809 480.7146875 124.96057617 481.116875 124.23193359 481.53125 C101.09654164 494.5566741 75.92537591 503.30551461 49.9375 508.625 C49.21860596 508.77235596 48.49971191 508.91971191 47.7590332 509.0715332 C32.23237908 512.02265207 16.83186592 512.71957988 1.0625 512.6875 C-0.45177582 512.68668427 -0.45177582 512.68668427 -1.99664307 512.68585205 C-18.50623539 512.64508601 -34.42282001 511.73779309 -50.625 508.3125 C-51.66688477 508.09287598 -52.70876953 507.87325195 -53.78222656 507.64697266 C-100.07549311 497.54935215 -142.48913721 475.19021242 -176.625 442.3125 C-177.28435547 441.68037598 -177.94371094 441.04825195 -178.62304688 440.39697266 C-188.11130305 431.25252521 -196.8512044 421.95515991 -204.625 411.3125 C-205.48306152 410.16144983 -206.34113451 409.01040823 -207.19921875 407.859375 C-213.23677396 399.66974019 -218.61957302 391.16711724 -223.625 382.3125 C-224.0271875 381.60528809 -224.429375 380.89807617 -224.84375 380.16943359 C-237.8691741 357.03404164 -246.61801461 331.86287591 -251.9375 305.875 C-252.08485596 305.15610596 -252.23221191 304.43721191 -252.3840332 303.6965332 C-255.35789088 288.05024391 -255.99800362 272.57681954 -255.9375 256.6875 C-255.93534485 255.66959381 -255.9331897 254.65168762 -255.93096924 253.60293579 C-255.88129854 238.99386477 -255.63040191 224.66174147 -252.625 210.3125 C-252.42632324 209.33764648 -252.22764648 208.36279297 -252.02294922 207.35839844 C-241.90232806 158.9765226 -219.9858123 114.98821731 -185.625 79.3125 C-184.99287598 78.65314453 -184.36075195 77.99378906 -183.70947266 77.31445312 C-174.56502521 67.82619695 -165.26765991 59.0862956 -154.625 51.3125 C-153.47394983 50.45443848 -152.32290823 49.59636549 -151.171875 48.73828125 C-142.98224019 42.70072604 -134.47961724 37.31792698 -125.625 32.3125 C-124.91778809 31.9103125 -124.21057617 31.508125 -123.48193359 31.09375 C-100.34654164 18.0683259 -75.17537591 9.31948539 -49.1875 4 C-48.46860596 3.85264404 -47.74971191 3.70528809 -47.0090332 3.5534668 C-31.36274391 0.57960912 -15.88931954 -0.06050362 0 0 Z " fill="#F24500" transform="translate(255.625,-0.3125)"/>
<path d="M0 0 C56.76 0 113.52 0 172 0 C190.625 38.5625 190.625 38.5625 196.40869141 50.70922852 C198.1817858 54.32571038 198.1817858 54.32571038 199.96615601 57.93663025 C200.7470618 59.53039801 201.5114116 61.13235068 202.2618103 62.7407074 C207.12308259 73.12243216 210.89286637 79.50606231 221.84603882 83.73252869 C230.12034623 87.05769557 234.03082914 94.18069901 237.7734375 101.875 C241.03647321 110.18846678 241.26981776 117.60981983 241.1953125 126.46875 C241.19106766 128.38282654 241.19106766 128.38282654 241.18673706 130.33557129 C241.17747997 133.70247059 241.15955962 137.06909082 241.1373291 140.43591309 C241.11674672 143.88173024 241.10770904 147.32757639 241.09765625 150.7734375 C241.0756663 157.51571103 241.04117267 164.25781742 241 171 C233.74 171 226.48 171 219 171 C219 184.2 219 197.4 219 211 C203.49 211 187.98 211 172 211 C172 197.8 172 184.6 172 171 C115.24 171 58.48 171 0 171 C0 183.87 0 196.74 0 210 C3.63 209.67 7.26 209.34 11 209 C13.20114728 208.88204102 15.40361156 208.78459595 17.60693359 208.71875 C19.36594498 208.66364258 19.36594498 208.66364258 21.16049194 208.60742188 C22.39401398 208.57197266 23.62753601 208.53652344 24.8984375 208.5 C26.90301943 208.43790212 28.9076013 208.37580227 30.91217995 208.31359863 C33.69875988 208.22791298 36.48542418 208.14517806 39.27209473 208.0625 C45.43933747 207.87920469 51.60642427 207.6908483 57.7734375 207.5 C58.43656448 207.47960348 59.09969147 207.45920696 59.78291321 207.43819237 C69.76004039 207.12934624 79.72662804 206.70777298 89.69580078 206.20947266 C95.04667266 205.94383067 100.39267807 205.74969801 105.75 205.6875 C106.62914062 205.65849609 107.50828125 205.62949219 108.4140625 205.59960938 C115.35162376 205.53270411 121.54626518 206.93324719 126.85424805 211.64648438 C131.12822363 216.15306193 133.91260465 221.24199982 134.05859375 227.51953125 C133.49823268 235.47188941 131.0470493 240.67283752 125 246 C121.00254492 248.75493629 116.91036232 250.05891907 112.26171875 251.26953125 C111.51189224 251.47115875 110.76206573 251.67278625 109.98951721 251.88052368 C107.55747842 252.53216429 105.12262738 253.17250775 102.6875 253.8125 C101.01060793 254.25934347 99.33385068 254.70669318 97.65722656 255.15454102 C87.2818969 257.91628554 76.88796651 260.60271097 66.44799805 263.1105957 C60.8571732 264.46675236 55.42702884 266.08966608 50 268 C51.16273438 268.60585938 52.32546875 269.21171875 53.5234375 269.8359375 C61.6029279 274.05888144 69.65882347 278.31638601 77.625 282.75 C78.33470947 283.14340576 79.04441895 283.53681152 79.77563477 283.94213867 C84.38234601 286.50688042 88.95263161 289.12883189 93.51171875 291.77734375 C94.63690918 292.42413086 95.76209961 293.07091797 96.92138672 293.73730469 C99.14999338 295.01895408 101.37194268 296.31226307 103.58642578 297.61816406 C104.60591309 298.20178711 105.62540039 298.78541016 106.67578125 299.38671875 C107.58239502 299.91483154 108.48900879 300.44294434 109.4230957 300.98706055 C112.55599033 302.21855082 113.83776231 302.08512677 117 301 C119.7262506 299.61205633 119.7262506 299.61205633 122.5078125 297.82421875 C123.56693848 297.16736084 124.62606445 296.51050293 125.71728516 295.83374023 C126.85331102 295.11851885 127.98921311 294.40310082 129.125 293.6875 C130.30349183 292.95259366 131.48236961 292.21830589 132.66162109 291.48461914 C136.11416201 289.33319653 139.55776165 287.16786901 143 285 C143.886875 284.44248047 144.77375 283.88496094 145.6875 283.31054688 C149.52040316 280.89942678 153.34788519 278.47991495 157.171875 276.0546875 C164.74741468 271.25431419 172.35659294 266.50764451 179.96875 261.765625 C183.93781398 259.29263217 187.8950151 256.80218721 191.84375 254.296875 C193.68746021 253.1353535 195.53120847 251.97389241 197.375 250.8125 C198.6122583 250.01984741 198.6122583 250.01984741 199.87451172 249.21118164 C207.32404499 244.54024998 215.89972058 239.33936507 225 241 C234.75521183 243.70059536 240.46151167 247.48873862 245.75 256.0625 C246.14832031 256.68705078 246.54664063 257.31160156 246.95703125 257.95507812 C248.62924813 260.61078527 250.00398964 263.01196892 251 266 C249.98164063 266.71542969 248.96328125 267.43085938 247.9140625 268.16796875 C240.24231761 273.56606076 232.59589735 278.99559398 225 284.5 C218.4994293 289.21042648 211.96136109 293.86297616 205.39453125 298.48046875 C200.2343313 302.11454672 195.11078334 305.79681272 190 309.5 C182.08678444 315.23190493 174.11919504 320.88260652 166.12646484 326.50292969 C163.2219779 328.54774185 160.32251388 330.59962091 157.4230957 332.65161133 C155.28448063 334.16312997 153.14248126 335.66974954 151 337.17578125 C148.48498768 338.94504922 145.98539089 340.73236719 143.5 342.54296875 C129.65645262 352.54404959 115.7558334 358.12377373 98.625 358.4375 C97.89522949 358.45989746 97.16545898 358.48229492 96.41357422 358.50537109 C82.91604753 358.44970515 69.77426797 352.62432401 57.375 347.8125 C55.78051358 347.20041503 54.18569565 346.58919305 52.59057617 345.97875977 C50.05672756 345.00878141 47.52317835 344.03806919 44.9907074 343.0644989 C38.59492785 340.60574165 32.18905251 338.17470654 25.77734375 335.7578125 C24.83437439 335.40234848 23.89140503 335.04688446 22.91986084 334.6806488 C21.00726204 333.95987633 19.09462363 333.23920898 17.1819458 332.51864624 C5.36324316 328.06561008 -6.45259462 323.6062303 -18.23828125 319.06640625 C-19.0344133 318.76012802 -19.83054535 318.45384979 -20.65080261 318.13829041 C-24.35607183 316.7125313 -28.05972834 315.28285705 -31.76049805 313.84545898 C-33.05902349 313.34473748 -34.35760404 312.84415885 -35.65625 312.34375 C-36.76806641 311.91255859 -37.87988281 311.48136719 -39.02539062 311.03710938 C-44.12131376 309.07484032 -44.12131376 309.07484032 -49.2980957 309.87353516 C-50.08273193 310.34065918 -50.86736816 310.8077832 -51.67578125 311.2890625 C-53.02385864 312.07385986 -53.02385864 312.07385986 -54.39916992 312.87451172 C-55.36056885 313.45217285 -56.32196777 314.02983398 -57.3125 314.625 C-59.37633673 315.83029786 -61.4414846 317.03335293 -63.5078125 318.234375 C-64.57418945 318.85763672 -65.64056641 319.48089844 -66.73925781 320.12304688 C-71.99667462 323.14932872 -77.34026478 326.01135668 -82.6875 328.875 C-89.87409638 332.72514683 -96.95624434 336.62959866 -103.828125 341.0234375 C-106 342 -106 342 -108.0234375 341.9609375 C-129.69150946 331.42665746 -147.30931448 286.34682765 -154.89453125 264.734375 C-156.32936018 260.50951065 -157.68677471 256.26411977 -159 252 C-155.40194336 250.47742787 -151.84966842 249.36742126 -148.0625 248.4140625 C-146.91910156 248.12273437 -145.77570313 247.83140625 -144.59765625 247.53125 C-143.41042969 247.2321875 -142.22320312 246.933125 -141 246.625 C-132.91794042 244.58871743 -124.93255791 242.39902929 -116.97900391 239.90625 C-112.91664747 238.6704307 -108.81814671 237.66456617 -104.6875 236.6875 C-97.20545004 234.86857174 -89.81743247 232.82036162 -82.4375 230.625 C-72.62091011 227.70636081 -62.74883398 225.09046027 -52.82421875 222.56616211 C-45.02076673 220.56607489 -37.29670343 218.38352894 -29.61621094 215.95288086 C-24.05555524 214.2168623 -18.801961 213.1603922 -13 212 C-29.83 211.505 -29.83 211.505 -47 211 C-47 197.8 -47 184.6 -47 171 C-54.26 171 -61.52 171 -69 171 C-69.09100804 163.66230215 -69.16411821 156.3249218 -69.20724869 148.9867754 C-69.22796765 145.57796273 -69.2559899 142.16956201 -69.30175781 138.76098633 C-69.35424748 134.8263879 -69.3730748 130.89194591 -69.390625 126.95703125 C-69.41127014 125.75544876 -69.43191528 124.55386627 -69.45318604 123.31587219 C-69.45676295 109.57972548 -65.70732124 98.44767969 -56.4140625 88.26171875 C-53.88736234 85.87676031 -51.63913993 84.23114281 -48.34381104 83.03939819 C-37.21415096 78.89428296 -34.05896549 70.45293286 -29.296875 60.3515625 C-28.53795984 58.80721586 -27.77575776 57.26448005 -27.01025391 55.72338867 C-24.21709757 50.04329489 -21.48722999 44.33225501 -18.75 38.625 C-12.5625 25.87875 -6.375 13.1325 0 0 Z " fill="#7684F1" transform="translate(170,81)"/>
<path d="M0 0 C1.01790619 0.00215515 2.03581238 0.0043103 3.08456421 0.00653076 C17.69363523 0.05620146 32.02575853 0.30709809 46.375 3.3125 C47.34985352 3.51117676 48.32470703 3.70985352 49.32910156 3.91455078 C97.7109774 14.03517194 141.69928269 35.9516877 177.375 70.3125 C178.3640332 71.26068604 178.3640332 71.26068604 179.37304688 72.22802734 C188.86130305 81.37247479 197.6012044 90.66984009 205.375 101.3125 C206.23306152 102.46355017 207.09113451 103.61459177 207.94921875 104.765625 C213.98736829 112.95680614 219.34595521 121.47054105 224.375 130.3125 C224.73948242 130.94430176 225.10396484 131.57610352 225.47949219 132.22705078 C245.97341826 168.03263478 257.24328065 210.06916897 256.375 251.3125 C251.49685942 247.24820734 246.90962375 242.98725444 242.43449402 238.48551941 C241.77247225 237.8236465 241.11045047 237.16177358 240.42836744 236.47984391 C238.22744964 234.27823583 236.03011944 232.07308272 233.83276367 229.86791992 C232.24901236 228.28224805 230.66503219 226.69680473 229.08084106 225.11157227 C225.67894917 221.70652659 222.27861535 218.29993532 218.87947655 214.89214134 C213.50852324 209.50764948 208.13374318 204.12698851 202.75837708 198.74690247 C195.22754745 191.20874906 187.69811287 183.66920589 180.17016602 176.12817383 C179.69316017 175.65034017 179.21615432 175.17250651 178.72469375 174.68019304 C175.33724736 171.28684375 171.94986753 167.89342801 168.5625 164.5 C164.68437514 160.61494135 160.80621582 156.72991711 156.92797852 152.8449707 C156.4500421 152.36620616 155.97210568 151.88744162 155.47968634 151.39416905 C147.51915735 143.41996869 139.55665481 135.44774172 131.59279042 127.47687227 C126.24470154 122.12378943 120.89906302 116.76827501 115.55526102 111.41091287 C112.23966132 108.08787956 108.92201428 104.76689622 105.6037941 101.4464798 C104.06052771 99.90133391 102.51812967 98.35532019 100.97664452 96.80839729 C98.88023895 94.70482668 96.78081731 92.60431404 94.68058777 90.50456238 C94.06474561 89.88512526 93.44890346 89.26568815 92.81439942 88.62748021 C89.87614302 85.59968861 89.87614302 85.59968861 86.375 83.3125 C86.375 82.6525 86.375 81.9925 86.375 81.3125 C29.615 81.3125 -27.145 81.3125 -85.625 81.3125 C-86.285 83.2925 -86.945 85.2725 -87.625 87.3125 C-88.70199731 89.72754458 -89.80235268 92.11158276 -90.95043945 94.49194336 C-91.28097824 95.18383255 -91.61151703 95.87572174 -91.95207214 96.58857727 C-94.9974944 102.94506471 -98.09060878 109.27870115 -101.19715595 115.60550594 C-103.27813686 119.84413591 -105.34365695 124.0888068 -107.37329102 128.35229492 C-109.34516057 132.49369574 -111.35457001 136.61482808 -113.39092064 140.72488594 C-114.15555453 142.28397578 -114.90713808 143.84954374 -115.64458656 145.42167473 C-120.15768545 155.01273083 -123.63854349 160.68414631 -133.66691589 165.02809143 C-141.73786721 168.53252155 -147.142438 175.38170983 -150.625 183.3125 C-153.49207214 191.59323402 -154.09076731 199.35912526 -154.13671875 208.07421875 C-154.16364555 209.98192802 -154.16364555 209.98192802 -154.19111633 211.92817688 C-154.23577383 215.27031806 -154.26825018 218.61210429 -154.29455566 221.95440674 C-154.32461038 225.38054264 -154.37105331 228.80645493 -154.41601562 232.23242188 C-154.500591 238.92569686 -154.56756225 245.61893936 -154.625 252.3125 C-147.365 252.3125 -140.105 252.3125 -132.625 252.3125 C-132.625 265.5125 -132.625 278.7125 -132.625 292.3125 C-120.415 292.3125 -108.205 292.3125 -95.625 292.3125 C-99.05134976 294.59673317 -102.23804614 295.27142412 -106.1875 296.125 C-114.61340233 298.02701362 -122.90333184 300.28732669 -131.21337891 302.63720703 C-134.56966465 303.5770214 -137.93423114 304.48524764 -141.29882812 305.39477539 C-150.66282891 307.92620402 -159.99279255 310.56018667 -169.3125 313.25 C-179.88611084 316.29655976 -190.49816508 319.14444453 -201.15820312 321.87207031 C-208.27690003 323.69484356 -215.36362394 325.60343355 -222.43554688 327.59912109 C-229.79205235 329.66401368 -237.20232397 331.50233786 -244.625 333.3125 C-251.12884876 312.50018398 -255.71952496 291.06209823 -255.828125 269.1796875 C-255.83871445 267.76016533 -255.83871445 267.76016533 -255.84951782 266.31196594 C-256.07741099 226.79597888 -256.07741099 226.79597888 -252.625 210.3125 C-252.42632324 209.33764648 -252.22764648 208.36279297 -252.02294922 207.35839844 C-241.90232806 158.9765226 -219.9858123 114.98821731 -185.625 79.3125 C-184.99287598 78.65314453 -184.36075195 77.99378906 -183.70947266 77.31445312 C-174.56502521 67.82619695 -165.26765991 59.0862956 -154.625 51.3125 C-153.47394983 50.45443848 -152.32290823 49.59636549 -151.171875 48.73828125 C-142.98224019 42.70072604 -134.47961724 37.31792698 -125.625 32.3125 C-124.91778809 31.9103125 -124.21057617 31.508125 -123.48193359 31.09375 C-100.34654164 18.0683259 -75.17537591 9.31948539 -49.1875 4 C-48.46860596 3.85264404 -47.74971191 3.70528809 -47.0090332 3.5534668 C-31.36274391 0.57960912 -15.88931954 -0.06050362 0 0 Z " fill="#FD8205" transform="translate(255.625,-0.3125)"/>
<path d="M0 0 C2.98557258 -0.09018254 5.97034176 -0.15125279 8.95678711 -0.20373535 C9.82781067 -0.23395782 10.69883423 -0.2641803 11.59625244 -0.2953186 C18.39541704 -0.36362064 24.51024003 1.13988835 29.70306396 5.74746704 C33.97504646 10.25601917 36.7600056 15.34247232 36.90600586 21.6204834 C36.34564479 29.57284156 33.89446141 34.77378967 27.84741211 40.10095215 C23.84995703 42.85588844 19.75777443 44.15987121 15.10913086 45.3704834 C14.35930435 45.5721109 13.60947784 45.7737384 12.83692932 45.98147583 C10.40489053 46.63311644 7.97003949 47.2734599 5.53491211 47.91345215 C3.85802004 48.36029562 2.18126279 48.80764533 0.50463867 49.25549316 C-9.87069099 52.01723769 -20.26462138 54.70366312 -30.70458984 57.21154785 C-36.29541469 58.56770451 -41.72555905 60.19061823 -47.15258789 62.10095215 C-45.98985352 62.70681152 -44.82711914 63.3126709 -43.62915039 63.93688965 C-35.54965999 68.15983358 -27.49376442 72.41733816 -19.52758789 76.85095215 C-18.46302368 77.44106079 -18.46302368 77.44106079 -17.37695312 78.04309082 C-12.77024188 80.60783257 -8.19995628 83.22978404 -3.64086914 85.8782959 C-2.51567871 86.52508301 -1.39048828 87.17187012 -0.23120117 87.83825684 C1.99740549 89.11990622 4.21935479 90.41321522 6.43383789 91.71911621 C7.4533252 92.30273926 8.4728125 92.8863623 9.52319336 93.4876709 C10.42980713 94.01578369 11.3364209 94.54389648 12.27050781 95.0880127 C15.40340244 96.31950297 16.68517442 96.18607891 19.84741211 95.10095215 C22.57366271 93.71300848 22.57366271 93.71300848 25.35522461 91.9251709 C26.41435059 91.26831299 27.47347656 90.61145508 28.56469727 89.93469238 C29.70072313 89.21947099 30.83662522 88.50405297 31.97241211 87.78845215 C33.15090394 87.05354581 34.32978172 86.31925804 35.5090332 85.58557129 C38.96157412 83.43414868 42.40517376 81.26882116 45.84741211 79.10095215 C46.73428711 78.54343262 47.62116211 77.98591309 48.53491211 77.41149902 C52.36781527 75.00037893 56.1952973 72.5808671 60.01928711 70.15563965 C67.59482679 65.35526634 75.20400505 60.60859666 82.81616211 55.86657715 C86.78522609 53.39358432 90.74242721 50.90313936 94.69116211 48.39782715 C96.53487232 47.23630565 98.37862058 46.07484456 100.22241211 44.91345215 C101.45967041 44.12079956 101.45967041 44.12079956 102.72192383 43.31213379 C110.1714571 38.64120213 118.74713269 33.44031722 127.84741211 35.10095215 C137.60262394 37.80154751 143.30892378 41.58969077 148.59741211 50.16345215 C148.99573242 50.78800293 149.39405273 51.41255371 149.80444336 52.05603027 C151.47666024 54.71173742 152.85140175 57.11292107 153.84741211 60.10095215 C152.82905273 60.81638184 151.81069336 61.53181152 150.76147461 62.2689209 C143.08972972 67.66701291 135.44330946 73.09654613 127.84741211 78.60095215 C121.3468414 83.31137862 114.8087732 87.9639283 108.24194336 92.5814209 C103.08174341 96.21549887 97.95819545 99.89776487 92.84741211 103.60095215 C84.93419655 109.33285708 76.96660715 114.98355867 68.97387695 120.60388184 C66.06939001 122.648694 63.16992599 124.70057306 60.27050781 126.75256348 C58.13189273 128.26408212 55.98989337 129.77070169 53.84741211 131.2767334 C51.33239979 133.04600137 48.832803 134.83331934 46.34741211 136.6439209 C32.50386473 146.64500174 18.60324551 152.22472588 1.47241211 152.53845215 C0.7426416 152.56084961 0.01287109 152.58324707 -0.73901367 152.60632324 C-14.23654036 152.5506573 -27.37831992 146.72527616 -39.77758789 141.91345215 C-41.37207431 141.30136717 -42.96689224 140.6901452 -44.56201172 140.07971191 C-47.09586033 139.10973356 -49.62940954 138.13902133 -52.16188049 137.16545105 C-58.55766004 134.7066938 -64.96353538 132.27565869 -71.37524414 129.85876465 C-72.3182135 129.50330063 -73.26118286 129.14783661 -74.23272705 128.78160095 C-76.14532585 128.06082848 -78.05796426 127.34016112 -79.97064209 126.61959839 C-91.78934473 122.16656223 -103.60518251 117.70718245 -115.39086914 113.1673584 C-116.18700119 112.86108017 -116.98313324 112.55480194 -117.8033905 112.23924255 C-121.50865972 110.81348344 -125.21231623 109.3838092 -128.91308594 107.94641113 C-130.21161138 107.44568963 -131.51019193 106.945111 -132.80883789 106.44470215 C-133.9206543 106.01351074 -135.0324707 105.58231934 -136.17797852 105.13806152 C-141.27390165 103.17579247 -141.27390165 103.17579247 -146.45068359 103.9744873 C-147.23531982 104.44161133 -148.01995605 104.90873535 -148.82836914 105.39001465 C-149.7270874 105.91321289 -150.62580566 106.43641113 -151.55175781 106.97546387 C-152.51315674 107.553125 -153.47455566 108.13078613 -154.46508789 108.72595215 C-156.52892462 109.93125001 -158.5940725 111.13430508 -160.66040039 112.33532715 C-161.72677734 112.95858887 -162.7931543 113.58185059 -163.8918457 114.22399902 C-169.14926251 117.25028087 -174.49285267 120.11230883 -179.84008789 122.97595215 C-187.02668427 126.82609898 -194.10883224 130.73055081 -200.98071289 135.12438965 C-203.15258789 136.10095215 -203.15258789 136.10095215 -205.17602539 136.06188965 C-226.84409735 125.5276096 -244.46190237 80.4477798 -252.04711914 58.83532715 C-253.48194807 54.6104628 -254.8393626 50.36507192 -256.15258789 46.10095215 C-252.55453125 44.57838002 -249.00225631 43.46837341 -245.21508789 42.51501465 C-243.49999023 42.07802246 -243.49999023 42.07802246 -241.75024414 41.63220215 C-240.56301758 41.33313965 -239.37579102 41.03407715 -238.15258789 40.72595215 C-230.07052831 38.68966958 -222.08514581 36.49998144 -214.1315918 34.00720215 C-210.06923536 32.77138285 -205.9707346 31.76551832 -201.84008789 30.78845215 C-194.35803793 28.96952389 -186.97002037 26.92131377 -179.59008789 24.72595215 C-169.76704323 21.80539384 -159.88863273 19.18696365 -149.95703125 16.66271973 C-142.42036123 14.73217899 -134.95614582 12.64645095 -127.55981445 10.22961426 C-112.73936591 5.54759153 -97.94352836 3.48576182 -82.46508789 2.97595215 C-80.68867041 2.90576175 -78.91230409 2.83426677 -77.13598633 2.76159668 C-73.26569023 2.60680512 -69.39518438 2.46313703 -65.52416992 2.32751465 C-59.83196034 2.12776844 -54.14069145 1.90759475 -48.4493866 1.6836853 C-42.26735672 1.44148228 -36.08499457 1.2083065 -29.90258789 0.97595215 C-28.14345566 0.90897125 -28.14345566 0.90897125 -26.3487854 0.84063721 C-19.66963197 0.58960595 -12.99057903 0.36511585 -6.30908203 0.1862793 C-4.20590652 0.12942572 -2.10286594 0.06733796 0 0 Z " fill="#FEDDCE" transform="translate(267.152587890625,286.8990478515625)"/>
<path d="M0 0 C28.38 0 56.76 0 86 0 C104.625 38.5625 104.625 38.5625 110.40869141 50.70922852 C112.1817858 54.32571038 112.1817858 54.32571038 113.96615601 57.93663025 C114.7470618 59.53039801 115.5114116 61.13235068 116.2618103 62.7407074 C121.12308259 73.12243216 124.89286637 79.50606231 135.84603882 83.73252869 C144.12034623 87.05769557 148.03082914 94.18069901 151.7734375 101.875 C155.03647321 110.18846678 155.26981776 117.60981983 155.1953125 126.46875 C155.1924826 127.74480103 155.18965271 129.02085205 155.18673706 130.33557129 C155.17747997 133.70247059 155.15955962 137.06909082 155.1373291 140.43591309 C155.11674672 143.88173024 155.10770904 147.32757639 155.09765625 150.7734375 C155.0756663 157.51571103 155.04117267 164.25781742 155 171 C147.74 171 140.48 171 133 171 C133 184.2 133 197.4 133 211 C117.49 211 101.98 211 86 211 C86 197.8 86 184.6 86 171 C29.24 171 -27.52 171 -86 171 C-86 170.67 -86 170.34 -86 170 C-57.62 170 -29.24 170 0 170 C0 139.31 0 108.62 0 77 C30.36 77 60.72 77 92 77 C83.11860776 59.31641642 83.11860776 59.31641642 74.22851562 41.63720703 C73.12077673 39.42756775 72.01333424 37.21777985 70.90625 35.0078125 C70.32327148 33.8520874 69.74029297 32.6963623 69.13964844 31.50561523 C68.59147461 30.40950928 68.04330078 29.31340332 67.47851562 28.18408203 C66.99886353 27.22921906 66.51921143 26.27435608 66.02502441 25.29055786 C65 23 65 23 65 21 C43.55 21 22.1 21 0 21 C0 14.07 0 7.14 0 0 Z " fill="#616AE9" transform="translate(256,81)"/>
<path d="M0 0 C42.9 0 85.8 0 130 0 C157 54 157 54 157 56 C96.28 56 35.56 56 -27 56 C-18.49599581 37.1022129 -9.26762585 18.5352517 0 0 Z " fill="#E8ECF5" transform="translate(191,102)"/>
<path d="M0 0 C4.48086794 3.00335524 6.97220102 6.55909863 9.75 11.0625 C10.14832031 11.68705078 10.54664063 12.31160156 10.95703125 12.95507812 C12.62924813 15.61078527 14.00398964 18.01196892 15 21 C13.98164063 21.71542969 12.96328125 22.43085938 11.9140625 23.16796875 C4.24231761 28.56606076 -3.40410265 33.99559398 -11 39.5 C-17.5005707 44.21042648 -24.03863891 48.86297616 -30.60546875 53.48046875 C-35.7656687 57.11454672 -40.88921666 60.79681272 -46 64.5 C-53.91321556 70.23190493 -61.88080496 75.88260652 -69.87353516 81.50292969 C-72.7780221 83.54774185 -75.67748612 85.59962091 -78.5769043 87.65161133 C-80.71551937 89.16312997 -82.85751874 90.66974954 -85 92.17578125 C-87.51501232 93.94504922 -90.01460911 95.73236719 -92.5 97.54296875 C-109.48472139 109.81334765 -126.24936747 114.36839801 -147 113 C-148.67608275 112.71780239 -150.35107482 112.41223129 -152 112 C-151.01 111.505 -151.01 111.505 -150 111 C-150 88.56 -150 66.12 -150 43 C-141.74349743 47.12825129 -134.27465457 50.88704616 -126.62109375 55.8125 C-123.40267043 57.27062323 -122.3523948 56.9664204 -119 56 C-116.2737494 54.61205633 -116.2737494 54.61205633 -113.4921875 52.82421875 C-112.43306152 52.16736084 -111.37393555 51.51050293 -110.28271484 50.83374023 C-109.14668898 50.11851885 -108.01078689 49.40310082 -106.875 48.6875 C-105.69650817 47.95259366 -104.51763039 47.21830589 -103.33837891 46.48461914 C-99.88583799 44.33319653 -96.44223835 42.16786901 -93 40 C-92.113125 39.44248047 -91.22625 38.88496094 -90.3125 38.31054688 C-86.47959684 35.89942678 -82.65211481 33.47991495 -78.828125 31.0546875 C-71.25258532 26.25431419 -63.64340706 21.50764451 -56.03125 16.765625 C-52.06218602 14.29263217 -48.1049849 11.80218721 -44.15625 9.296875 C-42.31253979 8.1353535 -40.46879153 6.97389241 -38.625 5.8125 C-37.80016113 5.28406494 -36.97532227 4.75562988 -36.12548828 4.21118164 C-23.65134984 -3.61022757 -13.7403089 -6.65449938 0 0 Z " fill="#FECCBD" transform="translate(406,326)"/>
<path d="M0 0 C1.15249741 0.00222061 2.30499481 0.00444122 3.49241638 0.00672913 C5.4443264 0.00684242 5.4443264 0.00684242 7.43566895 0.00695801 C8.86661313 0.01206543 10.29755694 0.01728144 11.72850037 0.02259827 C13.18438672 0.02446249 14.64027369 0.02588637 16.09616089 0.02688599 C19.93488791 0.03071086 23.77357731 0.04054088 27.61228943 0.05158997 C32.21445183 0.06359954 36.81662678 0.06820647 41.41880035 0.07404327 C48.41659113 0.08375266 55.41429932 0.10290939 62.41209412 0.12025452 C62.41209412 18.27025452 62.41209412 36.42025452 62.41209412 55.12025452 C32.05209412 55.12025452 1.69209412 55.12025452 -29.58790588 55.12025452 C-24.12947357 42.99040494 -18.68180851 31.0002232 -12.70069885 19.14002991 C-11.55539154 16.86826084 -10.41699058 14.59311796 -9.27931213 12.31752014 C-8.54922799 10.862249 -7.81877482 9.40716292 -7.08790588 7.95228577 C-6.58021667 6.93857658 -6.58021667 6.93857658 -6.06227112 5.90438843 C-3.15353285 0.14653801 -3.15353285 0.14653801 0 0 Z " fill="#FEFEFE" transform="translate(193.58790588378906,102.87974548339844)"/>
<path d="M0 0 C1.40668945 -0.04350586 1.40668945 -0.04350586 2.84179688 -0.08789062 C10.04351177 -0.15295129 16.38906248 1.0450689 21.91357422 5.95898438 C26.19211659 10.46098154 28.97513132 15.55564669 29.12109375 21.83203125 C28.56073268 29.78438941 26.1095493 34.98533752 20.0625 40.3125 C16.09423991 43.03627616 12.02994156 44.37770893 7.42578125 45.609375 C6.70512985 45.80726624 5.98447845 46.00515747 5.24198914 46.20904541 C3.72768842 46.62274829 2.21234729 47.03265971 0.69604492 47.43896484 C-1.63094468 48.064097 -3.95317775 48.70503439 -6.27539062 49.34765625 C-7.74974231 49.74834521 -9.22434351 50.14811746 -10.69921875 50.546875 C-11.39504562 50.73948914 -12.0908725 50.93210327 -12.80778503 51.1305542 C-17.70741111 52.42754445 -17.70741111 52.42754445 -19.9375 51.3125 C-19.6075 34.8125 -19.2775 18.3125 -18.9375 1.3125 C-12.49371787 0.50702723 -6.45305788 0.06625316 0 0 Z " fill="#FECCBC" transform="translate(274.9375,286.6875)"/>
<path d="M0 0 C15.51 0 31.02 0 47 0 C47 13.2 47 26.4 47 40 C31.49 40 15.98 40 0 40 C0 26.8 0 13.6 0 0 Z " fill="#414951" transform="translate(342,252)"/>
<path d="M0 0 C15.51 0 31.02 0 47 0 C47 12.87 47 25.74 47 39 C43.83558164 39.79110459 41.75604536 40.1228119 38.59863281 40.11352539 C37.3077475 40.11341209 37.3077475 40.11341209 35.99078369 40.11329651 C35.07085632 40.10813522 34.15092896 40.10297394 33.203125 40.09765625 C31.77996979 40.09553383 31.77996979 40.09553383 30.32806396 40.09336853 C27.30201038 40.08777742 24.27603117 40.07522652 21.25 40.0625 C19.19661565 40.05748385 17.14323014 40.05292115 15.08984375 40.04882812 C10.05984423 40.0386624 5.03000523 40.01908518 0 40 C0 26.8 0 13.6 0 0 Z " fill="#636977" transform="translate(123,252)"/>
<path d="M0 0 C20.79 0 41.58 0 63 0 C63 7.59 63 15.18 63 23 C42.21 23 21.42 23 0 23 C0 15.41 0 7.82 0 0 Z " fill="#E9EDF5" transform="translate(326,194)"/>
<path d="M0 0 C20.79 0 41.58 0 63 0 C63 7.59 63 15.18 63 23 C42.21 23 21.42 23 0 23 C0 15.41 0 7.82 0 0 Z " fill="#FFFFFF" transform="translate(123,194)"/>
<path d="M0 0 C6.93 0 13.86 0 21 0 C21 6.93 21 13.86 21 21 C13.11134235 14.23829344 13.11134235 14.23829344 10.25390625 11.38671875 C9.64482422 10.77892578 9.03574219 10.17113281 8.40820312 9.54492188 C7.79912109 8.93197266 7.19003906 8.31902344 6.5625 7.6875 C5.92634766 7.05521484 5.29019531 6.42292969 4.63476562 5.77148438 C4.03470703 5.17013672 3.43464844 4.56878906 2.81640625 3.94921875 C2.27443604 3.40612061 1.73246582 2.86302246 1.17407227 2.3034668 C0 1 0 1 0 0 Z " fill="#EF4702" transform="translate(102,252)"/>
<path d="M0 0 C12.21 0 24.42 0 37 0 C31.76403121 3.49064586 25.16008957 4.17583651 19.06298828 5.51416016 C17.32504642 5.92345061 15.60947784 6.42609948 13.90234375 6.94921875 C11.43397168 7.67027334 9.56575926 8.19147457 7 8 C4.07741329 6.09396519 1.98487118 3.85900319 0 1 C0 0.67 0 0.34 0 0 Z " fill="#F04A07" transform="translate(123,292)"/>
</svg>
